# xmcd CD database file
#
# Track frame offsets:
#	150
#	15015
#	32342
#	50142
#	67408
#	85223
#	106528
#	124376
#	138533
#	156660
#	171480
#
# Disc length: 2565 seconds
#
# Revision: 0
# Processed by: cddbd v1.5.2PL0 Copyright (c) Steve Scherf et al.
# Submitted via: CDex 1.51
#
DISCID=970a030b
DTITLE=Janiva Magness - Love Wins Again
DYEAR=2016
DGENRE=Blues
TTITLE0=Love Wins Again
TTITLE1=Real Slow
TTITLE2=When You Hold Me
TTITLE3=Say You Will
TTITLE4=Doorway
TTITLE5=Moth To A Flame
TTITLE6=Your House Is Burnin'
TTITLE7=Just Another Lesson
TTITLE8=Rain Down
TTITLE9=Long As I Can See The Light
TTITLE10=Janiva Magness - 11 Who Will Come For Me
EXTD=YEAR: 2016
EXTT0=
EXTT1=
EXTT2=
EXTT3=
EXTT4=
EXTT5=
EXTT6=
EXTT7=
EXTT8=
EXTT9=
EXTT10=
PLAYORDER=
